PathFileType	4	(X/Y/Z)	SUBJ94_0_static_RCNL2025.trc
DataRate	CameraRate	NumFrames	NumMarkers	Units	OrigDataRate	OrigDataStartFrame	OrigNumFrames
100	100	10	25	mm	100	29	227
Frame#	Time	R_Shoulder			L_Shoulder			C7			J_Notch			R_Elbow			L_Elbow			R_Wrist			L_Wrist			R_Asis			L_Asis			Sacral			Thoracic			Sternum			R_Thigh_Lateral			R_Knee_Lateral			R_Shank_Lateral			R_Ankle_Lateral			R_Heel			R_Toe			L_Thigh_Lateral			L_Knee_Lateral			L_Shank_Lateral			L_Ankle_Lateral			L_Heel			L_Toe		
		X1	Y1	Z1	X2	Y2	Z2	X3	Y3	Z3	X4	Y4	Z4	X5	Y5	Z5	X6	Y6	Z6	X7	Y7	Z7	X8	Y8	Z8	X9	Y9	Z9	X10	Y10	Z10	X11	Y11	Z11	X12	Y12	Z12	X13	Y13	Z13	X14	Y14	Z14	X15	Y15	Z15	X16	Y16	Z16	X17	Y17	Z17	X18	Y18	Z18	X19	Y19	Z19	X20	Y20	Z20	X21	Y21	Z21	X22	Y22	Z22	X23	Y23	Z23	X24	Y24	Z24	X25	Y25	Z25
29	0.28000000	-293.617798	1270.574219	-56.899235	-276.847473	1282.752930	-434.476746	-338.496948	1352.248901	-243.921936	-224.087280	1263.475708	-248.546768	-361.255127	1018.351013	59.544197	-342.376312	1028.601929	-548.838379	-337.909592	804.726807	124.517838	-300.479294	801.578583	-581.789154	-217.017471	881.864136	-117.030785	-198.391388	872.108459	-343.587311	-397.779449	939.781738	-254.750153	-400.359863	1149.114380	-255.538010	-184.358139	1070.737793	-239.862732	-308.588135	537.370605	-58.462227	-326.809784	444.358215	-116.348389	-349.137939	261.301941	-75.396919	-361.063995	55.871895	-158.310776	-404.256561	52.511547	-206.343948	-226.321274	37.907215	-187.979614	-291.635803	535.575928	-428.518555	-319.284760	439.405518	-373.490570	-335.767944	259.833282	-436.991486	-358.929016	56.809669	-331.725800	-399.311432	46.562550	-283.526764	-233.153152	42.415844	-300.124847
30	0.29000000	-293.640961	1270.538818	-56.884399	-276.836914	1282.786499	-434.488586	-338.433868	1352.241577	-243.864822	-224.089325	1263.479858	-248.559525	-361.112000	1018.385803	59.564194	-342.416046	1028.621704	-548.880676	-337.799866	804.746094	124.563080	-300.474960	801.583008	-581.797455	-217.013229	881.864807	-117.007500	-198.408661	872.103210	-343.563751	-397.773254	939.785034	-254.734573	-400.381622	1149.118286	-255.423508	-184.361481	1070.760498	-239.869400	-308.465668	537.395081	-58.440113	-326.825623	444.374207	-116.344719	-349.082428	261.275177	-75.453667	-361.052307	55.872227	-158.317612	-404.295166	52.562065	-206.346054	-226.321045	37.914776	-187.958771	-291.667145	535.526733	-428.527496	-319.286469	439.406403	-373.440247	-335.753113	259.805450	-437.002075	-358.898926	56.807266	-331.744324	-399.305206	46.540352	-283.565155	-233.155869	42.425545	-300.126038
31	0.30000000	-293.533203	1270.517822	-56.925117	-276.844421	1282.776978	-434.455231	-338.414490	1352.218994	-243.862640	-224.052185	1263.535645	-248.621399	-361.111053	1018.390015	59.593105	-342.391205	1028.606079	-548.831848	-337.634064	804.776581	124.699852	-300.472534	801.605591	-581.858368	-217.012527	881.882690	-117.005615	-198.399628	872.106567	-343.587982	-397.776245	939.786865	-254.734085	-400.312714	1149.127319	-255.454498	-184.331146	1070.800537	-239.948700	-308.437653	537.382141	-58.448051	-326.742676	444.329681	-116.395691	-349.061676	261.289154	-75.379623	-360.997681	55.849789	-158.332932	-404.240814	52.573696	-206.370941	-226.322845	37.909260	-188.002335	-291.631653	535.483093	-428.546204	-319.285767	439.409760	-373.420166	-335.742859	259.795776	-437.022491	-358.854828	56.792194	-331.702942	-399.341614	46.590199	-283.529816	-233.167450	42.486679	-300.164398
32	0.31000000	-293.524170	1270.513916	-56.934711	-276.872925	1282.857056	-434.436554	-338.451599	1352.201416	-243.802078	-224.050751	1263.549805	-248.532104	-361.067078	1018.346069	59.664688	-342.419281	1028.673584	-548.872009	-337.601089	804.739441	124.781517	-301.086792	801.287628	-581.901611	-216.894592	881.853210	-116.969467	-198.482117	872.097473	-343.496429	-397.786255	939.748779	-254.715515	-400.379547	1149.134888	-255.422318	-184.278275	1070.740601	-240.052536	-308.472900	537.411560	-58.410786	-326.719788	444.357117	-116.306419	-348.977509	261.258026	-75.404991	-361.029083	55.787148	-158.309250	-404.245697	52.515240	-206.349182	-226.306152	37.924313	-187.987091	-291.630951	535.513245	-428.489441	-319.273468	439.460907	-373.443573	-335.754486	259.804382	-437.006561	-358.919281	56.797699	-331.729614	-399.312866	46.574993	-283.557861	-233.145767	42.455452	-300.140533
33	0.32000000	-293.551086	1270.459961	-56.903267	-276.943939	1282.902222	-434.480743	-338.457245	1352.222046	-243.795212	-224.044403	1263.550659	-248.543518	-361.088379	1018.370483	59.694027	-342.371857	1028.710327	-548.869446	-337.534866	804.740936	124.806526	-301.129059	801.287140	-581.931763	-216.873291	881.892395	-116.970909	-198.413589	872.119751	-343.579254	-397.740051	939.735107	-254.647079	-400.417358	1149.115234	-255.343384	-184.270691	1070.734985	-240.038422	-308.450928	537.389648	-58.329109	-326.658478	444.351746	-116.349617	-348.968597	261.260864	-75.402153	-361.025360	55.806721	-158.314270	-404.357605	52.615543	-206.240997	-226.312302	37.931107	-188.005585	-291.611847	535.561707	-428.500458	-319.256897	439.434692	-373.406433	-335.774841	259.817810	-436.971649	-358.939362	56.837975	-331.703735	-399.373718	46.606827	-283.481812	-233.142181	42.434975	-300.102051
34	0.33000000	-293.518646	1270.364868	-56.852901	-277.015106	1282.892822	-434.457550	-338.408722	1352.220581	-243.719498	-224.034348	1263.619385	-248.573959	-360.995270	1018.346497	59.758430	-342.356873	1028.740234	-548.902771	-337.483459	804.698822	124.953735	-300.990189	801.357361	-581.978943	-216.893036	881.871704	-116.943489	-198.405655	872.106567	-343.567657	-397.766815	939.781311	-254.613968	-400.411163	1149.095581	-255.338791	-184.276688	1070.755005	-240.053131	-308.369598	537.329895	-58.338379	-326.725372	444.390259	-116.266563	-348.901733	261.257751	-75.322113	-361.051208	55.821365	-158.284058	-404.397827	52.636002	-206.245178	-226.320541	37.915394	-187.977402	-291.563416	535.534180	-428.450684	-319.273224	439.474976	-373.464325	-335.748535	259.825226	-437.009369	-358.936676	56.821529	-331.725372	-399.363892	46.605396	-283.451477	-233.169678	42.432007	-300.118073
35	0.34000000	-293.436768	1270.317383	-56.869114	-277.021088	1282.927734	-434.449738	-338.391632	1352.194702	-243.710693	-224.014664	1263.623901	-248.586594	-360.864532	1018.324829	59.791149	-342.350800	1028.745483	-548.927979	-337.355682	804.734833	125.024860	-300.953445	801.356323	-581.981842	-216.888428	881.892334	-116.963814	-198.464951	872.140625	-343.526306	-397.774231	939.770325	-254.585129	-400.342163	1149.127930	-255.319290	-184.276871	1070.756836	-240.055588	-308.177704	537.302002	-58.374111	-326.661469	444.319092	-116.309753	-348.885864	261.223999	-75.353096	-361.032928	55.784485	-158.316238	-404.372742	52.608398	-206.236053	-226.312363	37.887440	-188.001419	-291.566803	535.506653	-428.446136	-319.267303	439.460114	-373.428528	-335.750641	259.802368	-436.985962	-358.886108	56.761784	-331.685638	-399.311798	46.573772	-283.555878	-233.169403	42.440231	-300.114807
36	0.35000000	-293.417999	1270.307861	-56.880207	-277.095215	1282.988525	-434.470642	-338.391296	1352.193726	-243.712265	-224.055099	1263.535645	-248.606033	-360.820892	1018.388123	59.862099	-342.295105	1028.829712	-548.927795	-337.240784	804.678955	125.174667	-300.900162	801.409393	-582.069550	-216.895889	881.870056	-116.943008	-198.468658	872.181641	-343.460388	-397.707336	939.734985	-254.529892	-400.292755	1149.163574	-255.329010	-184.277222	1070.737915	-240.054077	-308.252014	537.345703	-58.301281	-326.655426	444.361847	-116.212303	-348.862335	261.134491	-75.411186	-361.013885	55.793507	-158.325912	-404.365936	52.569149	-206.249161	-226.314087	37.904552	-187.962158	-291.631470	535.558533	-428.466156	-319.254791	439.475800	-373.423584	-335.746857	259.807587	-436.956268	-358.813416	56.813858	-331.730560	-399.321014	46.555519	-283.515656	-233.161926	42.466949	-300.140686
37	0.36000000	-293.333130	1270.294678	-56.848003	-277.025146	1282.996460	-434.454468	-338.391968	1352.194336	-243.712357	-224.025818	1263.596802	-248.584274	-361.006348	1018.539001	60.007839	-342.383118	1028.845703	-548.873230	-337.110565	804.722168	125.258896	-300.846558	801.468842	-582.144989	-216.767044	881.897034	-116.932976	-198.447403	872.209656	-343.487610	-397.700500	939.738098	-254.487595	-400.365662	1149.178223	-255.280853	-184.262787	1070.759399	-240.082718	-308.195374	537.329041	-58.348972	-326.542877	444.279083	-116.266670	-348.854462	261.207367	-75.334999	-360.964630	55.837646	-158.262863	-404.274353	52.636570	-206.294662	-226.271637	37.904243	-188.002045	-291.636932	535.557739	-428.480255	-319.264648	439.458679	-373.424042	-335.727936	259.824615	-436.951752	-358.782135	56.829990	-331.756409	-399.320465	46.639084	-283.551086	-233.171402	42.481792	-300.186340
38	0.37000000	-293.316833	1270.286255	-56.855049	-277.084351	1283.031128	-434.504425	-338.330261	1352.186523	-243.653397	-224.026520	1263.621094	-248.587204	-360.794189	1018.408447	59.961575	-342.439514	1028.859253	-548.896240	-337.010559	804.751984	125.355434	-300.863464	801.514526	-582.200592	-216.740143	881.887817	-116.937256	-198.555862	872.206970	-343.532440	-397.796722	939.782532	-254.422180	-400.373688	1149.175049	-255.287674	-184.274506	1070.759277	-240.080185	-308.156860	537.291016	-58.380978	-326.555908	444.312775	-116.273773	-348.865875	261.083862	-75.393898	-360.966339	55.768925	-158.253845	-404.317352	52.513565	-206.289551	-226.312042	37.917355	-187.992371	-291.651611	535.543457	-428.460693	-319.281311	439.386200	-373.443665	-335.719635	259.824799	-436.936218	-358.894623	56.819324	-331.706177	-399.314423	46.560154	-283.559631	-233.168823	42.441181	-300.123627
